{
    "asset" : {
        "generator" : "Khronos glTF Blender I/O v1.1.45",
        "version" : "2.0"
    },
    "scene" : 0,
    "scenes" : [
        {
            "name" : "Scene",
            "nodes" : [
                0,
                1,
                8
            ]
        }
    ],
    "nodes" : [
        {
            "name" : "Light",
            "rotation" : [
                0.16907575726509094,
                0.7558803558349609,
                -0.27217137813568115,
                0.570947527885437
            ],
            "translation" : [
                4.076245307922363,
                5.903861999511719,
                -1.0054539442062378
            ]
        },
        {
            "name" : "Camera",
            "rotation" : [
                0.483536034822464,
                0.33687159419059753,
                -0.20870360732078552,
                0.7804827094078064
            ],
            "translation" : [
                7.358891487121582,
                4.958309173583984,
                6.925790786743164
            ]
        },
        {
            "mesh" : 0,
            "name" : "Chess_King_0"
        },
        {
            "children" : [
                2
            ],
            "name" : "Chess_King",
            "translation" : [
                0,
                3.4714999198913574,
                0
            ]
        },
        {
            "name" : "Lamp.001"
        },
        {
            "children" : [
                4
            ],
            "name" : "Lamp",
            "rotation" : [
                0.16907444596290588,
                0.7558797001838684,
                -0.2721706032752991,
                0.5709490180015564
            ],
            "scale" : [
                0.9999975562095642,
                0.9999960660934448,
                0.9999958276748657
            ],
            "translation" : [
                4.076250076293945,
                5.903860092163086,
                -1.0054500102996826
            ]
        },
        {
            "children" : [
                3,
                5
            ],
            "name" : "Root"
        },
        {
            "children" : [
                6
            ],
            "name" : "RootNode (model correction matrix)"
        },
        {
            "children" : [
                7
            ],
            "name" : "RootNode (gltf orientation matrix)"
        }
    ],
    "materials" : [
        {
            "doubleSided" : true,
            "emissiveFactor" : [
                0,
                0,
                0
            ],
            "name" : "Material.001",
            "pbrMetallicRoughness" : {
                "baseColorFactor" : [
                    0.003095438936725259,
                    0.003095438936725259,
                    0.003095438936725259,
                    1
                ],
                "metallicFactor" : 0,
                "roughnessFactor" : 0.5
            }
        }
    ],
    "meshes" : [
        {
            "name" : "Chess_King_0",
            "primitives" : [
                {
                    "attributes" : {
                        "POSITION" : 0,
                        "NORMAL" : 1
                    },
                    "indices" : 2,
                    "material" : 0
                }
            ]
        }
    ],
    "accessors" : [
        {
            "bufferView" : 0,
            "componentType" : 5126,
            "count" : 1629,
            "max" : [
                2.20809006690979,
                6.333449840545654,
                2.20809006690979
            ],
            "min" : [
                -2.20809006690979,
                -3.4714999198913574,
                -2.20809006690979
            ],
            "type" : "VEC3"
        },
        {
            "bufferView" : 1,
            "componentType" : 5126,
            "count" : 1629,
            "type" : "VEC3"
        },
        {
            "bufferView" : 2,
            "componentType" : 5123,
            "count" : 1890,
            "type" : "SCALAR"
        }
    ],
    "bufferViews" : [
        {
            "buffer" : 0,
            "byteLength" : 19548,
            "byteOffset" : 0
        },
        {
            "buffer" : 0,
            "byteLength" : 19548,
            "byteOffset" : 19548
        },
        {
            "buffer" : 0,
            "byteLength" : 3780,
            "byteOffset" : 39096
        }
    ],
    "buffers" : [
        {
            "byteLength" : 42876,
            "uri" : "data:application/octet-stream;base64,"
        }
    ]
}
