{
    "asset" : {
        "generator" : "Khronos glTF Blender I/O v1.1.45",
        "version" : "2.0"
    },
    "scene" : 0,
    "scenes" : [
        {
            "name" : "Scene",
            "nodes" : [
                0,
                1,
                6,
                13
            ]
        }
    ],
    "nodes" : [
        {
            "name" : "Light",
            "rotation" : [
                0.16907575726509094,
                0.7558803558349609,
                -0.27217137813568115,
                0.570947527885437
            ],
            "translation" : [
                4.076245307922363,
                5.903861999511719,
                -1.0054539442062378
            ]
        },
        {
            "name" : "Camera",
            "rotation" : [
                0.483536034822464,
                0.33687159419059753,
                -0.20870360732078552,
                0.7804827094078064
            ],
            "translation" : [
                7.358891487121582,
                4.958309173583984,
                6.925790786743164
            ]
        },
        {
            "name" : "pCylinder2"
        },
        {
            "children" : [
                2
            ],
            "name" : "RootNode"
        },
        {
            "children" : [
                3
            ],
            "name" : "2ce80aeb4e2a4ca593aee8a208bd1d7c.fbx",
            "rotation" : [
                0.7071068286895752,
                0,
                0,
                0.7071068286895752
            ]
        },
        {
            "children" : [
                4
            ],
            "name" : "RootNode (model correction matrix)"
        },
        {
            "children" : [
                5
            ],
            "name" : "RootNode (gltf orientation matrix)"
        },
        {
            "mesh" : 0,
            "name" : "Chess_Knight_0"
        },
        {
            "children" : [
                7
            ],
            "name" : "Chess_Knight",
            "translation" : [
                0,
                2.522550106048584,
                -0.08246999979019165
            ]
        },
        {
            "name" : "Lamp.001"
        },
        {
            "children" : [
                9
            ],
            "name" : "Lamp",
            "rotation" : [
                0.16907444596290588,
                0.7558797001838684,
                -0.2721706032752991,
                0.5709490180015564
            ],
            "scale" : [
                0.9999975562095642,
                0.9999960660934448,
                0.9999958276748657
            ],
            "translation" : [
                4.076250076293945,
                5.903860092163086,
                -1.0054500102996826
            ]
        },
        {
            "children" : [
                8,
                10
            ],
            "name" : "Root"
        },
        {
            "children" : [
                11
            ],
            "name" : "RootNode (model correction matrix).001"
        },
        {
            "children" : [
                12
            ],
            "name" : "RootNode (gltf orientation matrix).001"
        }
    ],
    "materials" : [
        {
            "doubleSided" : true,
            "emissiveFactor" : [
                0,
                0,
                0
            ],
            "name" : "Material.002",
            "pbrMetallicRoughness" : {
                "baseColorFactor" : [
                    0.800000011920929,
                    0.800000011920929,
                    0.800000011920929,
                    1
                ],
                "metallicFactor" : 0,
                "roughnessFactor" : 0.5
            }
        }
    ],
    "meshes" : [
        {
            "name" : "Chess_Knight_0",
            "primitives" : [
                {
                    "attributes" : {
                        "POSITION" : 0,
                        "NORMAL" : 1
                    },
                    "indices" : 2,
                    "material" : 0
                }
            ]
        }
    ],
    "accessors" : [
        {
            "bufferView" : 0,
            "componentType" : 5126,
            "count" : 1708,
            "max" : [
                1.96274995803833,
                4.1786699295043945,
                2.0452098846435547
            ],
            "min" : [
                -1.96274995803833,
                -2.522550106048584,
                -1.8802800178527832
            ],
            "type" : "VEC3"
        },
        {
            "bufferView" : 1,
            "componentType" : 5126,
            "count" : 1708,
            "type" : "VEC3"
        },
        {
            "bufferView" : 2,
            "componentType" : 5123,
            "count" : 2196,
            "type" : "SCALAR"
        }
    ],
    "bufferViews" : [
        {
            "buffer" : 0,
            "byteLength" : 20496,
            "byteOffset" : 0
        },
        {
            "buffer" : 0,
            "byteLength" : 20496,
            "byteOffset" : 20496
        },
        {
            "buffer" : 0,
            "byteLength" : 4392,
            "byteOffset" : 40992
        }
    ],
    "buffers" : [
        {
            "byteLength" : 45384,
            "uri" : "data:application/octet-stream;base64,"
        }
    ]
}
