{
    "asset" : {
        "generator" : "Khronos glTF Blender I/O v1.1.45",
        "version" : "2.0"
    },
    "scene" : 0,
    "scenes" : [
        {
            "name" : "Scene",
            "nodes" : [
                0,
                1,
                2,
                4,
                5
            ]
        }
    ],
    "nodes" : [
        {
            "name" : "Light",
            "rotation" : [
                0.16907575726509094,
                0.7558803558349609,
                -0.27217137813568115,
                0.570947527885437
            ],
            "translation" : [
                4.076245307922363,
                5.903861999511719,
                -1.0054539442062378
            ]
        },
        {
            "name" : "Camera",
            "rotation" : [
                0.483536034822464,
                0.33687159419059753,
                -0.20870360732078552,
                0.7804827094078064
            ],
            "translation" : [
                7.358891487121582,
                4.958309173583984,
                6.925790786743164
            ]
        },
        {
            "name" : "Yup2Zup",
            "rotation" : [
                0.7071067690849304,
                0,
                0,
                0.7071067690849304
            ]
        },
        {
            "name" : "(palm_tree_low_poly).obj.cleaner.materialmerger.gles"
        },
        {
            "children" : [
                3
            ],
            "name" : "Sketchfab_model",
            "rotation" : [
                -0.7071068286895752,
                0,
                0,
                0.7071068286895752
            ]
        },
        {
            "mesh" : 0,
            "name" : "(palm_tree_low_poly)",
            "rotation" : [
                0.7071068286895752,
                0,
                0,
                0.7071067094802856
            ]
        }
    ],
    "materials" : [
        {
            "doubleSided" : true,
            "emissiveFactor" : [
                0,
                0,
                0
            ],
            "name" : "Standard402000.001",
            "pbrMetallicRoughness" : {
                "baseColorFactor" : [
                    0.250980406999588,
                    0.125490203499794,
                    0,
                    1
                ],
                "metallicFactor" : 0,
                "roughnessFactor" : 1
            }
        },
        {
            "doubleSided" : true,
            "emissiveFactor" : [
                0,
                0,
                0
            ],
            "name" : "Standard408000",
            "pbrMetallicRoughness" : {
                "baseColorFactor" : [
                    0.250980406999588,
                    0.501960813999176,
                    0,
                    1
                ],
                "metallicFactor" : 0,
                "roughnessFactor" : 1
            }
        },
        {
            "doubleSided" : true,
            "emissiveFactor" : [
                0,
                0,
                0
            ],
            "name" : "Standard603000",
            "pbrMetallicRoughness" : {
                "baseColorFactor" : [
                    0.3764706254005432,
                    0.1882353127002716,
                    0,
                    1
                ],
                "metallicFactor" : 0,
                "roughnessFactor" : 1
            }
        }
    ],
    "meshes" : [
        {
            "name" : "(palm_tree_low_poly)",
            "primitives" : [
                {
                    "attributes" : {
                        "POSITION" : 0,
                        "NORMAL" : 1,
                        "TEXCOORD_0" : 2
                    },
                    "indices" : 3,
                    "material" : 0
                },
                {
                    "attributes" : {
                        "POSITION" : 4,
                        "NORMAL" : 5,
                        "TEXCOORD_0" : 6
                    },
                    "indices" : 7,
                    "material" : 1
                },
                {
                    "attributes" : {
                        "POSITION" : 8,
                        "NORMAL" : 9,
                        "TEXCOORD_0" : 10
                    },
                    "indices" : 11,
                    "material" : 2
                }
            ]
        }
    ],
    "accessors" : [
        {
            "bufferView" : 0,
            "componentType" : 5126,
            "count" : 8692,
            "max" : [
                0.019528908655047417,
                -0.005397777538746595,
                0
            ],
            "min" : [
                -0.03942925110459328,
                -0.06435579061508179,
                -0.3996371328830719
            ],
            "type" : "VEC3"
        },
        {
            "bufferView" : 1,
            "componentType" : 5126,
            "count" : 8692,
            "type" : "VEC3"
        },
        {
            "bufferView" : 2,
            "componentType" : 5126,
            "count" : 8692,
            "type" : "VEC2"
        },
        {
            "bufferView" : 3,
            "componentType" : 5123,
            "count" : 25344,
            "type" : "SCALAR"
        },
        {
            "bufferView" : 4,
            "componentType" : 5126,
            "count" : 288,
            "max" : [
                0.13542260229587555,
                0.10762860625982285,
                -0.24853987991809845
            ],
            "min" : [
                -0.13542258739471436,
                -0.16057227551937103,
                -0.43727076053619385
            ],
            "type" : "VEC3"
        },
        {
            "bufferView" : 5,
            "componentType" : 5126,
            "count" : 288,
            "type" : "VEC3"
        },
        {
            "bufferView" : 6,
            "componentType" : 5126,
            "count" : 288,
            "type" : "VEC2"
        },
        {
            "bufferView" : 7,
            "componentType" : 5123,
            "count" : 288,
            "type" : "SCALAR"
        },
        {
            "bufferView" : 8,
            "componentType" : 5126,
            "count" : 2682,
            "max" : [
                0.02489876002073288,
                -0.009931152686476707,
                -0.2971172034740448
            ],
            "min" : [
                -0.04349410533905029,
                -0.0708981603384018,
                -0.38875845074653625
            ],
            "type" : "VEC3"
        },
        {
            "bufferView" : 9,
            "componentType" : 5126,
            "count" : 2682,
            "type" : "VEC3"
        },
        {
            "bufferView" : 10,
            "componentType" : 5126,
            "count" : 2682,
            "type" : "VEC2"
        },
        {
            "bufferView" : 11,
            "componentType" : 5123,
            "count" : 3888,
            "type" : "SCALAR"
        }
    ],
    "bufferViews" : [
        {
            "buffer" : 0,
            "byteLength" : 104304,
            "byteOffset" : 0
        },
        {
            "buffer" : 0,
            "byteLength" : 104304,
            "byteOffset" : 104304
        },
        {
            "buffer" : 0,
            "byteLength" : 69536,
            "byteOffset" : 208608
        },
        {
            "buffer" : 0,
            "byteLength" : 50688,
            "byteOffset" : 278144
        },
        {
            "buffer" : 0,
            "byteLength" : 3456,
            "byteOffset" : 328832
        },
        {
            "buffer" : 0,
            "byteLength" : 3456,
            "byteOffset" : 332288
        },
        {
            "buffer" : 0,
            "byteLength" : 2304,
            "byteOffset" : 335744
        },
        {
            "buffer" : 0,
            "byteLength" : 576,
            "byteOffset" : 338048
        },
        {
            "buffer" : 0,
            "byteLength" : 32184,
            "byteOffset" : 338624
        },
        {
            "buffer" : 0,
            "byteLength" : 32184,
            "byteOffset" : 370808
        },
        {
            "buffer" : 0,
            "byteLength" : 21456,
            "byteOffset" : 402992
        },
        {
            "buffer" : 0,
            "byteLength" : 7776,
            "byteOffset" : 424448
        }
    ],
    "buffers" : [
        {
            "byteLength" : 432224,
            "uri" : "data:application/octet-stream;base64,"
        }
    ]
}
