{
    "asset" : {
        "generator" : "Khronos glTF Blender I/O v1.1.45",
        "version" : "2.0"
    },
    "scene" : 0,
    "scenes" : [
        {
            "name" : "Scene",
            "nodes" : [
                0,
                1,
                11
            ]
        }
    ],
    "nodes" : [
        {
            "name" : "Light",
            "rotation" : [
                0.16907575726509094,
                0.7558803558349609,
                -0.27217137813568115,
                0.570947527885437
            ],
            "translation" : [
                4.076245307922363,
                5.903861999511719,
                -1.0054539442062378
            ]
        },
        {
            "name" : "Camera",
            "rotation" : [
                0.483536034822464,
                0.33687159419059753,
                -0.20870360732078552,
                0.7804827094078064
            ],
            "translation" : [
                7.358891487121582,
                4.958309173583984,
                6.925790786743164
            ]
        },
        {
            "mesh" : 0,
            "name" : "Object_2"
        },
        {
            "mesh" : 1,
            "name" : "Object_3"
        },
        {
            "mesh" : 2,
            "name" : "Object_4"
        },
        {
            "mesh" : 3,
            "name" : "Object_5"
        },
        {
            "mesh" : 4,
            "name" : "Object_6"
        },
        {
            "mesh" : 5,
            "name" : "Object_7"
        },
        {
            "mesh" : 6,
            "name" : "Object_8"
        },
        {
            "mesh" : 7,
            "name" : "Object_9"
        },
        {
            "children" : [
                2,
                3,
                4,
                5,
                6,
                7,
                8,
                9
            ],
            "name" : "24bc7d0f0c3940199ea408a0463cfe51.3ds"
        },
        {
            "children" : [
                10
            ],
            "name" : "Sketchfab_model"
        }
    ],
    "materials" : [
        {
            "doubleSided" : true,
            "name" : "Accessoires",
            "pbrMetallicRoughness" : {}
        },
        {
            "doubleSided" : true,
            "emissiveFactor" : [
                0,
                0,
                0
            ],
            "name" : "Material.001",
            "pbrMetallicRoughness" : {
                "baseColorTexture" : {
                    "index" : 0,
                    "texCoord" : 0
                },
                "metallicFactor" : 0,
                "roughnessFactor" : 0.5
            }
        },
        {
            "doubleSided" : true,
            "name" : "Image_auv",
            "pbrMetallicRoughness" : {}
        },
        {
            "doubleSided" : true,
            "name" : "Pare-choc",
            "pbrMetallicRoughness" : {}
        },
        {
            "doubleSided" : true,
            "name" : "Phares",
            "pbrMetallicRoughness" : {}
        },
        {
            "doubleSided" : true,
            "name" : "Roues",
            "occlusionTexture" : {
                "index" : 1,
                "texCoord" : 0
            },
            "pbrMetallicRoughness" : {}
        },
        {
            "alphaMode" : "BLEND",
            "doubleSided" : true,
            "name" : "Vitre",
            "pbrMetallicRoughness" : {}
        }
    ],
    "meshes" : [
        {
            "name" : "Object_0",
            "primitives" : [
                {
                    "attributes" : {
                        "POSITION" : 0,
                        "NORMAL" : 1,
                        "TEXCOORD_0" : 2
                    },
                    "indices" : 3,
                    "material" : 0
                }
            ]
        },
        {
            "name" : "Object_1",
            "primitives" : [
                {
                    "attributes" : {
                        "POSITION" : 4,
                        "NORMAL" : 5,
                        "TEXCOORD_0" : 6
                    },
                    "indices" : 7,
                    "material" : 1
                }
            ]
        },
        {
            "name" : "Object_2",
            "primitives" : [
                {
                    "attributes" : {
                        "POSITION" : 8,
                        "NORMAL" : 9,
                        "TEXCOORD_0" : 10
                    },
                    "indices" : 11,
                    "material" : 2
                }
            ]
        },
        {
            "name" : "Object_3",
            "primitives" : [
                {
                    "attributes" : {
                        "POSITION" : 12,
                        "NORMAL" : 13,
                        "TEXCOORD_0" : 14
                    },
                    "indices" : 15,
                    "material" : 3
                }
            ]
        },
        {
            "name" : "Object_4",
            "primitives" : [
                {
                    "attributes" : {
                        "POSITION" : 16,
                        "NORMAL" : 17,
                        "TEXCOORD_0" : 18
                    },
                    "indices" : 19,
                    "material" : 4
                }
            ]
        },
        {
            "name" : "Object_5",
            "primitives" : [
                {
                    "attributes" : {
                        "POSITION" : 20,
                        "NORMAL" : 21,
                        "TEXCOORD_0" : 22
                    },
                    "indices" : 23,
                    "material" : 5
                }
            ]
        },
        {
            "name" : "Object_6",
            "primitives" : [
                {
                    "attributes" : {
                        "POSITION" : 24,
                        "NORMAL" : 25
                    },
                    "indices" : 26,
                    "material" : 6
                }
            ]
        },
        {
            "name" : "Object_7",
            "primitives" : [
                {
                    "attributes" : {
                        "POSITION" : 27,
                        "NORMAL" : 28,
                        "TEXCOORD_0" : 29
                    },
                    "indices" : 30,
                    "material" : 6
                }
            ]
        }
    ],
    "textures" : [
        {
            "source" : 0
        },
        {
            "source" : 1
        }
    ],
    "images" : [
        {
            "bufferView" : 8,
            "mimeType" : "image/png",
            "name" : "Caisse_diffuse"
        },
        {
            "bufferView" : 25,
            "mimeType" : "image/png",
            "name" : "Roues_occlusion"
        }
    ],
    "accessors" : [
        {
            "bufferView" : 0,
            "componentType" : 5126,
            "count" : 3069,
            "max" : [
                0.7948715090751648,
                1.1165825128555298,
                1.7897976636886597
            ],
            "min" : [
                -0.799828052520752,
                -0.5028294920921326,
                -0.8694377541542053
            ],
            "type" : "VEC3"
        },
        {
            "bufferView" : 1,
            "componentType" : 5126,
            "count" : 3069,
            "type" : "VEC3"
        },
        {
            "bufferView" : 2,
            "componentType" : 5126,
            "count" : 3069,
            "type" : "VEC2"
        },
        {
            "bufferView" : 3,
            "componentType" : 5123,
            "count" : 3876,
            "type" : "SCALAR"
        },
        {
            "bufferView" : 4,
            "componentType" : 5126,
            "count" : 5800,
            "max" : [
                0.8883074522018433,
                0.9496119618415833,
                1.6724218130111694
            ],
            "min" : [
                -0.8957329392433167,
                -0.6110973358154297,
                -1.5682015419006348
            ],
            "type" : "VEC3"
        },
        {
            "bufferView" : 5,
            "componentType" : 5126,
            "count" : 5800,
            "type" : "VEC3"
        },
        {
            "bufferView" : 6,
            "componentType" : 5126,
            "count" : 5800,
            "type" : "VEC2"
        },
        {
            "bufferView" : 7,
            "componentType" : 5123,
            "count" : 13572,
            "type" : "SCALAR"
        },
        {
            "bufferView" : 9,
            "componentType" : 5126,
            "count" : 132,
            "max" : [
                0.8359968066215515,
                0.8377854824066162,
                0.5572910308837891
            ],
            "min" : [
                -0.8434222936630249,
                0.3289848864078522,
                0.5536661744117737
            ],
            "type" : "VEC3"
        },
        {
            "bufferView" : 10,
            "componentType" : 5126,
            "count" : 132,
            "type" : "VEC3"
        },
        {
            "bufferView" : 11,
            "componentType" : 5126,
            "count" : 132,
            "type" : "VEC2"
        },
        {
            "bufferView" : 12,
            "componentType" : 5123,
            "count" : 204,
            "type" : "SCALAR"
        },
        {
            "bufferView" : 13,
            "componentType" : 5126,
            "count" : 1133,
            "max" : [
                0.7853754162788391,
                -0.4916780889034271,
                1.6122491359710693
            ],
            "min" : [
                -0.7919208407402039,
                -0.719332754611969,
                -1.4075260162353516
            ],
            "type" : "VEC3"
        },
        {
            "bufferView" : 14,
            "componentType" : 5126,
            "count" : 1133,
            "type" : "VEC3"
        },
        {
            "bufferView" : 15,
            "componentType" : 5126,
            "count" : 1133,
            "type" : "VEC2"
        },
        {
            "bufferView" : 16,
            "componentType" : 5123,
            "count" : 2976,
            "type" : "SCALAR"
        },
        {
            "bufferView" : 17,
            "componentType" : 5126,
            "count" : 3124,
            "max" : [
                0.6516211628913879,
                -0.06400046497583389,
                1.6282044649124146
            ],
            "min" : [
                -0.6590470671653748,
                -0.5352696776390076,
                -1.3742362260818481
            ],
            "type" : "VEC3"
        },
        {
            "bufferView" : 18,
            "componentType" : 5126,
            "count" : 3124,
            "type" : "VEC3"
        },
        {
            "bufferView" : 19,
            "componentType" : 5126,
            "count" : 3124,
            "type" : "VEC2"
        },
        {
            "bufferView" : 20,
            "componentType" : 5123,
            "count" : 7200,
            "type" : "SCALAR"
        },
        {
            "bufferView" : 21,
            "componentType" : 5126,
            "count" : 9014,
            "max" : [
                0.8467217087745667,
                -0.24162557721138,
                1.1637769937515259
            ],
            "min" : [
                -0.8541982173919678,
                -0.9262245297431946,
                -0.9918544888496399
            ],
            "type" : "VEC3"
        },
        {
            "bufferView" : 22,
            "componentType" : 5126,
            "count" : 9014,
            "type" : "VEC3"
        },
        {
            "bufferView" : 23,
            "componentType" : 5126,
            "count" : 9014,
            "type" : "VEC2"
        },
        {
            "bufferView" : 24,
            "componentType" : 5123,
            "count" : 24312,
            "type" : "SCALAR"
        },
        {
            "bufferView" : 26,
            "componentType" : 5126,
            "count" : 654,
            "max" : [
                0.8359968066215515,
                0.8393229842185974,
                1.614742398262024
            ],
            "min" : [
                -0.8424229025840759,
                0.31998759508132935,
                0.5401296615600586
            ],
            "type" : "VEC3"
        },
        {
            "bufferView" : 27,
            "componentType" : 5126,
            "count" : 654,
            "type" : "VEC3"
        },
        {
            "bufferView" : 28,
            "componentType" : 5123,
            "count" : 2364,
            "type" : "SCALAR"
        },
        {
            "bufferView" : 29,
            "componentType" : 5126,
            "count" : 3088,
            "max" : [
                0.6481946110725403,
                -0.07292220741510391,
                1.7005820274353027
            ],
            "min" : [
                -0.6560301184654236,
                -0.5322372913360596,
                -1.3901418447494507
            ],
            "type" : "VEC3"
        },
        {
            "bufferView" : 30,
            "componentType" : 5126,
            "count" : 3088,
            "type" : "VEC3"
        },
        {
            "bufferView" : 31,
            "componentType" : 5126,
            "count" : 3088,
            "type" : "VEC2"
        },
        {
            "bufferView" : 32,
            "componentType" : 5123,
            "count" : 13824,
            "type" : "SCALAR"
        }
    ],
    "bufferViews" : [
        {
            "buffer" : 0,
            "byteLength" : 36828,
            "byteOffset" : 0
        },
        {
            "buffer" : 0,
            "byteLength" : 36828,
            "byteOffset" : 36828
        },
        {
            "buffer" : 0,
            "byteLength" : 24552,
            "byteOffset" : 73656
        },
        {
            "buffer" : 0,
            "byteLength" : 7752,
            "byteOffset" : 98208
        },
        {
            "buffer" : 0,
            "byteLength" : 69600,
            "byteOffset" : 105960
        },
        {
            "buffer" : 0,
            "byteLength" : 69600,
            "byteOffset" : 175560
        },
        {
            "buffer" : 0,
            "byteLength" : 46400,
            "byteOffset" : 245160
        },
        {
            "buffer" : 0,
            "byteLength" : 27144,
            "byteOffset" : 291560
        },
        {
            "buffer" : 0,
            "byteLength" : 103299,
            "byteOffset" : 318704
        },
        {
            "buffer" : 0,
            "byteLength" : 1584,
            "byteOffset" : 422004
        },
        {
            "buffer" : 0,
            "byteLength" : 1584,
            "byteOffset" : 423588
        },
        {
            "buffer" : 0,
            "byteLength" : 1056,
            "byteOffset" : 425172
        },
        {
            "buffer" : 0,
            "byteLength" : 408,
            "byteOffset" : 426228
        },
        {
            "buffer" : 0,
            "byteLength" : 13596,
            "byteOffset" : 426636
        },
        {
            "buffer" : 0,
            "byteLength" : 13596,
            "byteOffset" : 440232
        },
        {
            "buffer" : 0,
            "byteLength" : 9064,
            "byteOffset" : 453828
        },
        {
            "buffer" : 0,
            "byteLength" : 5952,
            "byteOffset" : 462892
        },
        {
            "buffer" : 0,
            "byteLength" : 37488,
            "byteOffset" : 468844
        },
        {
            "buffer" : 0,
            "byteLength" : 37488,
            "byteOffset" : 506332
        },
        {
            "buffer" : 0,
            "byteLength" : 24992,
            "byteOffset" : 543820
        },
        {
            "buffer" : 0,
            "byteLength" : 14400,
            "byteOffset" : 568812
        },
        {
            "buffer" : 0,
            "byteLength" : 108168,
            "byteOffset" : 583212
        },
        {
            "buffer" : 0,
            "byteLength" : 108168,
            "byteOffset" : 691380
        },
        {
            "buffer" : 0,
            "byteLength" : 72112,
            "byteOffset" : 799548
        },
        {
            "buffer" : 0,
            "byteLength" : 48624,
            "byteOffset" : 871660
        },
        {
            "buffer" : 0,
            "byteLength" : 216040,
            "byteOffset" : 920284
        },
        {
            "buffer" : 0,
            "byteLength" : 7848,
            "byteOffset" : 1136324
        },
        {
            "buffer" : 0,
            "byteLength" : 7848,
            "byteOffset" : 1144172
        },
        {
            "buffer" : 0,
            "byteLength" : 4728,
            "byteOffset" : 1152020
        },
        {
            "buffer" : 0,
            "byteLength" : 37056,
            "byteOffset" : 1156748
        },
        {
            "buffer" : 0,
            "byteLength" : 37056,
            "byteOffset" : 1193804
        },
        {
            "buffer" : 0,
            "byteLength" : 24704,
            "byteOffset" : 1230860
        },
        {
            "buffer" : 0,
            "byteLength" : 27648,
            "byteOffset" : 1255564
        }
    ],
    "buffers" : [
        {
            "byteLength" : 1283212,
            "uri" : "data:application/octet-stream;base64,"
        }
    ]
}
