{
    "asset" : {
        "generator" : "Khronos glTF Blender I/O v1.1.45",
        "version" : "2.0"
    },
    "scene" : 0,
    "scenes" : [
        {
            "name" : "Scene",
            "nodes" : [
                0,
                1,
                9,
                15
            ]
        }
    ],
    "nodes" : [
        {
            "name" : "Light",
            "rotation" : [
                0.16907575726509094,
                0.7558803558349609,
                -0.27217137813568115,
                0.570947527885437
            ],
            "translation" : [
                4.076245307922363,
                5.903861999511719,
                -1.0054539442062378
            ]
        },
        {
            "name" : "Camera",
            "rotation" : [
                0.483536034822464,
                0.33687159419059753,
                -0.20870360732078552,
                0.7804827094078064
            ],
            "translation" : [
                7.358891487121582,
                4.958309173583984,
                6.925790786743164
            ]
        },
        {
            "mesh" : 0,
            "name" : "Object_7"
        },
        {
            "children" : [
                2
            ],
            "name" : "Bishop.001_1",
            "scale" : [
                1.334027886390686,
                1.334027886390686,
                1.334027886390686
            ],
            "translation" : [
                0.023499097675085068,
                0,
                0
            ]
        },
        {
            "mesh" : 1,
            "name" : "Object_5"
        },
        {
            "children" : [
                4
            ],
            "name" : "Bishop_0",
            "scale" : [
                1.334027886390686,
                1.334027886390686,
                1.334027886390686
            ],
            "translation" : [
                -0.0227760449051857,
                0,
                0
            ]
        },
        {
            "children" : [
                3,
                5
            ],
            "name" : "GLTF_SceneRootNode",
            "rotation" : [
                0.7071068286895752,
                0,
                0,
                0.7071068286895752
            ]
        },
        {
            "children" : [
                6
            ],
            "name" : "root"
        },
        {
            "children" : [
                7
            ],
            "name" : "RootNode (model correction matrix)"
        },
        {
            "children" : [
                8
            ],
            "name" : "RootNode (gltf orientation matrix)"
        },
        {
            "mesh" : 2,
            "name" : "pCylinder2_lambert1_0"
        },
        {
            "children" : [
                10
            ],
            "name" : "pCylinder2"
        },
        {
            "children" : [
                11
            ],
            "name" : "RootNode"
        },
        {
            "children" : [
                12
            ],
            "name" : "2ce80aeb4e2a4ca593aee8a208bd1d7c.fbx",
            "rotation" : [
                0.7071068286895752,
                0,
                0,
                0.7071068286895752
            ]
        },
        {
            "children" : [
                13
            ],
            "name" : "RootNode (model correction matrix).001"
        },
        {
            "children" : [
                14
            ],
            "name" : "RootNode (gltf orientation matrix).001"
        }
    ],
    "materials" : [
        {
            "doubleSided" : true,
            "emissiveFactor" : [
                0,
                0,
                0
            ],
            "name" : "White_Square",
            "pbrMetallicRoughness" : {
                "baseColorFactor" : [
                    0.8829370141029358,
                    1,
                    1,
                    1
                ],
                "metallicFactor" : 0.6499999761581421,
                "roughnessFactor" : 0.15000000596046448
            }
        },
        {
            "doubleSided" : true,
            "emissiveFactor" : [
                0,
                0,
                0
            ],
            "name" : "Black_Square",
            "pbrMetallicRoughness" : {
                "baseColorFactor" : [
                    0.007620729971677065,
                    0.005608549807220697,
                    0.008036879822611809,
                    1
                ],
                "metallicFactor" : 0.875,
                "roughnessFactor" : 0.15000000596046448
            }
        },
        {
            "doubleSided" : true,
            "emissiveFactor" : [
                0,
                0,
                0
            ],
            "name" : "Material.001",
            "pbrMetallicRoughness" : {
                "baseColorFactor" : [
                    0,
                    0,
                    0,
                    1
                ],
                "metallicFactor" : 0,
                "roughnessFactor" : 0.5
            }
        }
    ],
    "meshes" : [
        {
            "name" : "Mesh_1",
            "primitives" : [
                {
                    "attributes" : {
                        "POSITION" : 0,
                        "NORMAL" : 1,
                        "TEXCOORD_0" : 2
                    },
                    "indices" : 3,
                    "material" : 0
                }
            ]
        },
        {
            "name" : "Mesh_0",
            "primitives" : [
                {
                    "attributes" : {
                        "POSITION" : 4,
                        "NORMAL" : 5,
                        "TEXCOORD_0" : 6
                    },
                    "indices" : 3,
                    "material" : 1
                }
            ]
        },
        {
            "name" : "pCylinder2_lambert1_0",
            "primitives" : [
                {
                    "attributes" : {
                        "POSITION" : 7,
                        "NORMAL" : 8,
                        "TEXCOORD_0" : 9
                    },
                    "indices" : 10,
                    "material" : 2
                }
            ]
        }
    ],
    "accessors" : [
        {
            "bufferView" : 0,
            "componentType" : 5126,
            "count" : 3184,
            "max" : [
                0.014999998733401299,
                0.014999999664723873,
                0
            ],
            "min" : [
                -0.015000000596046448,
                -0.014999999664723873,
                -0.06359551846981049
            ],
            "type" : "VEC3"
        },
        {
            "bufferView" : 1,
            "componentType" : 5126,
            "count" : 3184,
            "type" : "VEC3"
        },
        {
            "bufferView" : 2,
            "componentType" : 5126,
            "count" : 3184,
            "type" : "VEC2"
        },
        {
            "bufferView" : 3,
            "componentType" : 5123,
            "count" : 3192,
            "type" : "SCALAR"
        },
        {
            "bufferView" : 4,
            "componentType" : 5126,
            "count" : 3184,
            "max" : [
                0.014999998733401299,
                0.014999999664723873,
                0
            ],
            "min" : [
                -0.015000000596046448,
                -0.014999999664723873,
                -0.06359551846981049
            ],
            "type" : "VEC3"
        },
        {
            "bufferView" : 5,
            "componentType" : 5126,
            "count" : 3184,
            "type" : "VEC3"
        },
        {
            "bufferView" : 6,
            "componentType" : 5126,
            "count" : 3184,
            "type" : "VEC2"
        },
        {
            "bufferView" : 7,
            "componentType" : 5126,
            "count" : 953,
            "max" : [
                3.2691569328308105,
                3.2691683769226074,
                4.921270370483398
            ],
            "min" : [
                -3.2691569328308105,
                -3.2691683769226074,
                -5.041182994842529
            ],
            "type" : "VEC3"
        },
        {
            "bufferView" : 8,
            "componentType" : 5126,
            "count" : 953,
            "type" : "VEC3"
        },
        {
            "bufferView" : 9,
            "componentType" : 5126,
            "count" : 953,
            "type" : "VEC2"
        },
        {
            "bufferView" : 10,
            "componentType" : 5123,
            "count" : 1776,
            "type" : "SCALAR"
        }
    ],
    "bufferViews" : [
        {
            "buffer" : 0,
            "byteLength" : 38208,
            "byteOffset" : 0
        },
        {
            "buffer" : 0,
            "byteLength" : 38208,
            "byteOffset" : 38208
        },
        {
            "buffer" : 0,
            "byteLength" : 25472,
            "byteOffset" : 76416
        },
        {
            "buffer" : 0,
            "byteLength" : 6384,
            "byteOffset" : 101888
        },
        {
            "buffer" : 0,
            "byteLength" : 38208,
            "byteOffset" : 108272
        },
        {
            "buffer" : 0,
            "byteLength" : 38208,
            "byteOffset" : 146480
        },
        {
            "buffer" : 0,
            "byteLength" : 25472,
            "byteOffset" : 184688
        },
        {
            "buffer" : 0,
            "byteLength" : 11436,
            "byteOffset" : 210160
        },
        {
            "buffer" : 0,
            "byteLength" : 11436,
            "byteOffset" : 221596
        },
        {
            "buffer" : 0,
            "byteLength" : 7624,
            "byteOffset" : 233032
        },
        {
            "buffer" : 0,
            "byteLength" : 3552,
            "byteOffset" : 240656
        }
    ],
    "buffers" : [
        {
            "byteLength" : 244208,
            "uri" : "data:application/octet-stream;base64,"
        }
    ]
}
