{
    "asset" : {
        "generator" : "Khronos glTF Blender I/O v1.1.45",
        "version" : "2.0"
    },
    "scene" : 0,
    "scenes" : [
        {
            "name" : "Scene",
            "nodes" : [
                0,
                1,
                12
            ]
        }
    ],
    "nodes" : [
        {
            "name" : "Light",
            "rotation" : [
                0.16907575726509094,
                0.7558803558349609,
                -0.27217137813568115,
                0.570947527885437
            ],
            "translation" : [
                4.076245307922363,
                5.903861999511719,
                -1.0054539442062378
            ]
        },
        {
            "name" : "Camera",
            "rotation" : [
                0.483536034822464,
                0.33687159419059753,
                -0.20870360732078552,
                0.7804827094078064
            ],
            "translation" : [
                7.358891487121582,
                4.958309173583984,
                6.925790786743164
            ]
        },
        {
            "mesh" : 0,
            "name" : "Object_10"
        },
        {
            "mesh" : 1,
            "name" : "Object_5"
        },
        {
            "mesh" : 2,
            "name" : "Object_6"
        },
        {
            "mesh" : 3,
            "name" : "Object_7"
        },
        {
            "mesh" : 4,
            "name" : "Object_8"
        },
        {
            "mesh" : 5,
            "name" : "Object_9"
        },
        {
            "children" : [
                2,
                3,
                4,
                5,
                6,
                7
            ],
            "name" : "ufo_0",
            "rotation" : [
                0,
                0,
                -1,
                0
            ],
            "scale" : [
                -2,
                -2,
                -0.48445892333984375
            ]
        },
        {
            "children" : [
                8
            ],
            "name" : "GLTF_SceneRootNode",
            "rotation" : [
                0.7071068286895752,
                0,
                0,
                0.7071068286895752
            ]
        },
        {
            "children" : [
                9
            ],
            "name" : "root"
        },
        {
            "children" : [
                10
            ],
            "name" : "RootNode (model correction matrix)"
        },
        {
            "children" : [
                11
            ],
            "name" : "RootNode (gltf orientation matrix)"
        }
    ],
    "materials" : [
        {
            "doubleSided" : true,
            "emissiveFactor" : [
                0,
                0,
                0
            ],
            "name" : "Bottom.001",
            "pbrMetallicRoughness" : {}
        },
        {
            "doubleSided" : true,
            "emissiveFactor" : [
                0,
                0,
                0
            ],
            "name" : "Body",
            "pbrMetallicRoughness" : {}
        },
        {
            "doubleSided" : true,
            "emissiveFactor" : [
                0,
                0,
                0
            ],
            "name" : "Material.003",
            "pbrMetallicRoughness" : {
                "baseColorFactor" : [
                    0.800000011920929,
                    0.800000011920929,
                    0.800000011920929,
                    1
                ],
                "metallicFactor" : 0,
                "roughnessFactor" : 0.5
            }
        },
        {
            "doubleSided" : true,
            "emissiveFactor" : [
                0,
                0,
                0
            ],
            "name" : "Material.002",
            "pbrMetallicRoughness" : {
                "baseColorFactor" : [
                    0.8000000715255737,
                    0.009514600038528442,
                    0.009514600038528442,
                    1
                ],
                "metallicFactor" : 0,
                "roughnessFactor" : 0.5
            }
        },
        {
            "doubleSided" : true,
            "emissiveFactor" : [
                0,
                0,
                0
            ],
            "name" : "Bottom",
            "pbrMetallicRoughness" : {}
        },
        {
            "doubleSided" : true,
            "emissiveFactor" : [
                0,
                0,
                0
            ],
            "name" : "Material.001",
            "pbrMetallicRoughness" : {
                "baseColorFactor" : [
                    0.00263731530867517,
                    0.8000000715255737,
                    0.03950584679841995,
                    1
                ],
                "metallicFactor" : 0,
                "roughnessFactor" : 0.5
            }
        }
    ],
    "meshes" : [
        {
            "name" : "Mesh_5",
            "primitives" : [
                {
                    "attributes" : {
                        "POSITION" : 0,
                        "NORMAL" : 1,
                        "TEXCOORD_0" : 2
                    },
                    "indices" : 3,
                    "material" : 0
                }
            ]
        },
        {
            "name" : "Mesh_0",
            "primitives" : [
                {
                    "attributes" : {
                        "POSITION" : 4,
                        "NORMAL" : 5,
                        "TEXCOORD_0" : 6
                    },
                    "indices" : 7,
                    "material" : 1
                }
            ]
        },
        {
            "name" : "Mesh_1",
            "primitives" : [
                {
                    "attributes" : {
                        "POSITION" : 8,
                        "NORMAL" : 9,
                        "TEXCOORD_0" : 10
                    },
                    "indices" : 11,
                    "material" : 2
                }
            ]
        },
        {
            "name" : "Mesh_2",
            "primitives" : [
                {
                    "attributes" : {
                        "POSITION" : 12,
                        "NORMAL" : 13,
                        "TEXCOORD_0" : 14
                    },
                    "indices" : 15,
                    "material" : 3
                }
            ]
        },
        {
            "name" : "Mesh_3",
            "primitives" : [
                {
                    "attributes" : {
                        "POSITION" : 16,
                        "NORMAL" : 17,
                        "TEXCOORD_0" : 18
                    },
                    "indices" : 19,
                    "material" : 4
                }
            ]
        },
        {
            "name" : "Mesh_4",
            "primitives" : [
                {
                    "attributes" : {
                        "POSITION" : 20,
                        "NORMAL" : 21,
                        "TEXCOORD_0" : 22
                    },
                    "indices" : 23,
                    "material" : 5
                }
            ]
        }
    ],
    "accessors" : [
        {
            "bufferView" : 0,
            "componentType" : 5126,
            "count" : 369,
            "max" : [
                0.3923441171646118,
                0.392344206571579,
                -1.3715167045593262
            ],
            "min" : [
                -0.3923439085483551,
                -0.39234399795532227,
                -1.8408000469207764
            ],
            "type" : "VEC3"
        },
        {
            "bufferView" : 1,
            "componentType" : 5126,
            "count" : 369,
            "type" : "VEC3"
        },
        {
            "bufferView" : 2,
            "componentType" : 5126,
            "count" : 369,
            "type" : "VEC2"
        },
        {
            "bufferView" : 3,
            "componentType" : 5123,
            "count" : 1440,
            "type" : "SCALAR"
        },
        {
            "bufferView" : 4,
            "componentType" : 5126,
            "count" : 559,
            "max" : [
                1.000000238418579,
                1.0000003576278687,
                1
            ],
            "min" : [
                -0.9999998211860657,
                -1,
                -1
            ],
            "type" : "VEC3"
        },
        {
            "bufferView" : 5,
            "componentType" : 5126,
            "count" : 559,
            "type" : "VEC3"
        },
        {
            "bufferView" : 6,
            "componentType" : 5126,
            "count" : 559,
            "type" : "VEC2"
        },
        {
            "bufferView" : 7,
            "componentType" : 5123,
            "count" : 2880,
            "type" : "SCALAR"
        },
        {
            "bufferView" : 8,
            "componentType" : 5126,
            "count" : 329,
            "max" : [
                0.5000001192092896,
                0.5000001788139343,
                2.5693421363830566
            ],
            "min" : [
                -0.49999991059303284,
                -0.5,
                0.1024864912033081
            ],
            "type" : "VEC3"
        },
        {
            "bufferView" : 9,
            "componentType" : 5126,
            "count" : 329,
            "type" : "VEC3"
        },
        {
            "bufferView" : 10,
            "componentType" : 5126,
            "count" : 329,
            "type" : "VEC2"
        },
        {
            "bufferView" : 11,
            "componentType" : 5123,
            "count" : 1632,
            "type" : "SCALAR"
        },
        {
            "bufferView" : 12,
            "componentType" : 5126,
            "count" : 574,
            "max" : [
                1.0526615381240845,
                1.052661418914795,
                1.2460966110229492
            ],
            "min" : [
                -1.0526610612869263,
                -1.0526607036590576,
                -0.2165396511554718
            ],
            "type" : "VEC3"
        },
        {
            "bufferView" : 13,
            "componentType" : 5126,
            "count" : 574,
            "type" : "VEC3"
        },
        {
            "bufferView" : 14,
            "componentType" : 5126,
            "count" : 574,
            "type" : "VEC2"
        },
        {
            "bufferView" : 15,
            "componentType" : 5123,
            "count" : 2880,
            "type" : "SCALAR"
        },
        {
            "bufferView" : 16,
            "componentType" : 5126,
            "count" : 198,
            "max" : [
                0.6926311254501343,
                0.6926312446594238,
                -0.6764965653419495
            ],
            "min" : [
                -0.6926308274269104,
                -0.692631185054779,
                -1.4520223140716553
            ],
            "type" : "VEC3"
        },
        {
            "bufferView" : 17,
            "componentType" : 5126,
            "count" : 198,
            "type" : "VEC3"
        },
        {
            "bufferView" : 18,
            "componentType" : 5126,
            "count" : 198,
            "type" : "VEC2"
        },
        {
            "bufferView" : 19,
            "componentType" : 5123,
            "count" : 960,
            "type" : "SCALAR"
        },
        {
            "bufferView" : 20,
            "componentType" : 5126,
            "count" : 714,
            "max" : [
                0.73521888256073,
                0.8334733843803406,
                0.9195261597633362
            ],
            "min" : [
                -0.7352188229560852,
                -0.8334735035896301,
                0.18629181385040283
            ],
            "type" : "VEC3"
        },
        {
            "bufferView" : 21,
            "componentType" : 5126,
            "count" : 714,
            "type" : "VEC3"
        },
        {
            "bufferView" : 22,
            "componentType" : 5126,
            "count" : 714,
            "type" : "VEC2"
        },
        {
            "bufferView" : 23,
            "componentType" : 5123,
            "count" : 3240,
            "type" : "SCALAR"
        }
    ],
    "bufferViews" : [
        {
            "buffer" : 0,
            "byteLength" : 4428,
            "byteOffset" : 0
        },
        {
            "buffer" : 0,
            "byteLength" : 4428,
            "byteOffset" : 4428
        },
        {
            "buffer" : 0,
            "byteLength" : 2952,
            "byteOffset" : 8856
        },
        {
            "buffer" : 0,
            "byteLength" : 2880,
            "byteOffset" : 11808
        },
        {
            "buffer" : 0,
            "byteLength" : 6708,
            "byteOffset" : 14688
        },
        {
            "buffer" : 0,
            "byteLength" : 6708,
            "byteOffset" : 21396
        },
        {
            "buffer" : 0,
            "byteLength" : 4472,
            "byteOffset" : 28104
        },
        {
            "buffer" : 0,
            "byteLength" : 5760,
            "byteOffset" : 32576
        },
        {
            "buffer" : 0,
            "byteLength" : 3948,
            "byteOffset" : 38336
        },
        {
            "buffer" : 0,
            "byteLength" : 3948,
            "byteOffset" : 42284
        },
        {
            "buffer" : 0,
            "byteLength" : 2632,
            "byteOffset" : 46232
        },
        {
            "buffer" : 0,
            "byteLength" : 3264,
            "byteOffset" : 48864
        },
        {
            "buffer" : 0,
            "byteLength" : 6888,
            "byteOffset" : 52128
        },
        {
            "buffer" : 0,
            "byteLength" : 6888,
            "byteOffset" : 59016
        },
        {
            "buffer" : 0,
            "byteLength" : 4592,
            "byteOffset" : 65904
        },
        {
            "buffer" : 0,
            "byteLength" : 5760,
            "byteOffset" : 70496
        },
        {
            "buffer" : 0,
            "byteLength" : 2376,
            "byteOffset" : 76256
        },
        {
            "buffer" : 0,
            "byteLength" : 2376,
            "byteOffset" : 78632
        },
        {
            "buffer" : 0,
            "byteLength" : 1584,
            "byteOffset" : 81008
        },
        {
            "buffer" : 0,
            "byteLength" : 1920,
            "byteOffset" : 82592
        },
        {
            "buffer" : 0,
            "byteLength" : 8568,
            "byteOffset" : 84512
        },
        {
            "buffer" : 0,
            "byteLength" : 8568,
            "byteOffset" : 93080
        },
        {
            "buffer" : 0,
            "byteLength" : 5712,
            "byteOffset" : 101648
        },
        {
            "buffer" : 0,
            "byteLength" : 6480,
            "byteOffset" : 107360
        }
    ],
    "buffers" : [
        {
            "byteLength" : 113840,
            "uri" : "data:application/octet-stream;base64,"
        }
    ]
}
